 0
SECTION
 2
ENTITIES
  0
LINE
 8
Layer0
10
367.8541172179278
20
24.98530789658062
30
0.0
11
367.5409603320029
21
24.9934556008771
31
0.0
  0
LINE
 8
Layer0
10
367.5409603320029
20
24.9934556008771
30
0.0
11
364.9277707404917
21
24.980490292793043
31
0.0
  0
LINE
 8
Layer0
10
-2.469999999999999
20
-0.008038686579029486
30
0.0
11
30.83
21
0.0
31
0.0
  0
LINE
 8
Layer0
10
268.96
20
0.0
30
0.0
11
297.26
21
0.0
31
0.0
  0
LINE
 8
Layer0
10
302.26
20
0.0
30
0.0
11
330.56
21
0.0
31
0.0
  0
LINE
 8
Layer0
10
268.25449476067723
20
24.896386852393164
30
0.0
11
267.9541172179278
21
24.98530789658062
31
0.0
  0
LINE
 8
Layer0
10
35.83
20
0.0
30
0.0
11
35.829999999999984
21
23.92568486038535
31
0.0
  0
LINE
 8
Layer0
10
298.02317563565083
20
24.907309404615663
30
0.0
11
298.32777074049176
21
24.980490292793043
31
0.0
  0
LINE
 8
Layer0
10
35.829999999999984
20
23.92568486038535
30
0.0
11
35.756819111822495
21
24.230279965226053
31
0.0
  0
LINE
 8
Layer0
10
334.2409603320029
20
24.9934556008771
30
0.0
11
331.62777074049177
21
24.980490292793043
31
0.0
  0
LINE
 8
Layer0
10
335.56
20
0.0
30
0.0
11
335.56
21
23.92568486038535
31
0.0
  0
LINE
 8
Layer0
10
330.6570687484839
20
24.274985053470225
30
0.0
11
330.5681477042965
21
23.974607510720915
31
0.0
  0
LINE
 8
Layer0
10
335.12162272711
20
24.73275229052763
30
0.0
11
334.85449476067726
21
24.896386852393164
31
0.0
  0
LINE
 8
Layer0
10
334.5541172179278
20
24.98530789658062
30
0.0
11
334.2409603320029
21
24.9934556008771
31
0.0
  0
LINE
 8
Layer0
10
335.56
20
23.92568486038535
30
0.0
11
335.4868191118225
21
24.230279965226053
31
0.0
  0
LINE
 8
Layer0
10
330.56
20
23.661450624796018
30
0.0
11
330.56
21
0.0
31
0.0
  0
LINE
 8
Layer0
10
331.32317563565084
20
24.907309404615663
30
0.0
11
331.62777074049177
21
24.980490292793043
31
0.0
  0
LINE
 8
Layer0
10
31.31789996492157
20
24.75778708055653
30
0.0
11
31.090703310349628
21
24.54211301990295
31
0.0
  0
LINE
 8
Layer0
10
335.3372967877633
20
24.505555635955375
30
0.0
11
335.12162272711
21
24.73275229052763
31
0.0
  0
LINE
 8
Layer0
10
331.04789996492156
20
24.75778708055653
30
0.0
11
330.82070331034964
21
24.54211301990295
31
0.0
  0
LINE
 8
Layer0
10
331.32317563565084
20
24.907309404615663
30
0.0
11
331.04789996492156
21
24.75778708055653
31
0.0
  0
LINE
 8
Layer0
10
335.4868191118225
20
24.230279965226053
30
0.0
11
335.3372967877633
21
24.505555635955375
31
0.0
  0
LINE
 8
Layer0
10
334.85449476067726
20
24.896386852393164
30
0.0
11
334.5541172179278
21
24.98530789658062
31
0.0
  0
LINE
 8
Layer0
10
330.82070331034964
20
24.54211301990295
30
0.0
11
330.6570687484839
21
24.274985053470225
31
0.0
  0
LINE
 8
Layer0
10
330.5681477042965
20
23.974607510720915
30
0.0
11
330.56
21
23.661450624796018
31
0.0
  0
LINE
 8
Layer0
10
298.02317563565083
20
24.907309404615663
30
0.0
11
297.7478999649216
21
24.75778708055653
31
0.0
  0
LINE
 8
Layer0
10
297.52070331034963
20
24.54211301990295
30
0.0
11
297.35706874848387
21
24.274985053470225
31
0.0
  0
LINE
 8
Layer0
10
102.46
20
0.0
30
0.0
11
130.76
21
0.0
31
0.0
  0
LINE
 8
Layer0
10
368.6372967877633
20
24.505555635955375
30
0.0
11
368.42162272711
21
24.73275229052763
31
0.0
  0
LINE
 8
Layer0
10
34.82411721792779
20
24.98530789658062
30
0.0
11
34.51096033200288
21
24.9934556008771
31
0.0
  0
LINE
 8
Layer0
10
268.73729678776334
20
24.505555635955375
30
0.0
11
268.52162272710996
21
24.73275229052763
31
0.0
  0
LINE
 8
Layer0
10
34.51096033200288
20
24.9934556008771
30
0.0
11
31.897770740491733
21
24.980490292793043
31
0.0
  0
LINE
 8
Layer0
10
35.607296787763325
20
24.505555635955375
30
0.0
11
35.39162272710998
21
24.73275229052763
31
0.0
  0
LINE
 8
Layer0
10
267.64096033200286
20
24.9934556008771
30
0.0
11
265.02777074049175
21
24.980490292793043
31
0.0
  0
LINE
 8
Layer0
10
268.96
20
0.0
30
0.0
11
268.96
21
23.92568486038535
31
0.0
  0
LINE
 8
Layer0
10
297.7478999649216
20
24.75778708055653
30
0.0
11
297.52070331034963
21
24.54211301990295
31
0.0
  0
LINE
 8
Layer0
10
267.9541172179278
20
24.98530789658062
30
0.0
11
267.64096033200286
21
24.9934556008771
31
0.0
  0
LINE
 8
Layer0
10
297.35706874848387
20
24.274985053470225
30
0.0
11
297.26814770429655
21
23.974607510720915
31
0.0
  0
LINE
 8
Layer0
10
268.96
20
23.92568486038535
30
0.0
11
268.8868191118225
21
24.230279965226053
31
0.0
  0
LINE
 8
Layer0
10
264.4478999649216
20
24.75778708055653
30
0.0
11
264.2207033103496
21
24.54211301990295
31
0.0
  0
LINE
 8
Layer0
10
297.26
20
23.661450624796018
30
0.0
11
297.26
21
0.0
31
0.0
  0
LINE
 8
Layer0
10
368.86
20
0.0
30
0.0
11
397.53
21
0.0
31
0.0
  0
LINE
 8
Layer0
10
335.56
20
0.0
30
0.0
11
363.86
21
0.0
31
0.0
  0
LINE
 8
Layer0
10
368.86
20
0.0
30
0.0
11
368.86
21
23.92568486038535
31
0.0
  0
LINE
 8
Layer0
10
-2.469999999999999
20
45.0
30
0.0
11
397.53
21
45.0
31
0.0
  0
LINE
 8
Layer0
10
368.86
20
23.92568486038535
30
0.0
11
368.7868191118225
21
24.230279965226053
31
0.0
  0
LINE
 8
Layer0
10
301.55449476067724
20
24.896386852393164
30
0.0
11
301.2541172179278
21
24.98530789658062
31
0.0
  0
LINE
 8
Layer0
10
297.26814770429655
20
23.974607510720915
30
0.0
11
297.26
21
23.661450624796018
31
0.0
  0
LINE
 8
Layer0
10
301.82162272710997
20
24.73275229052763
30
0.0
11
301.55449476067724
21
24.896386852393164
31
0.0
  0
LINE
 8
Layer0
10
302.1868191118225
20
24.230279965226053
30
0.0
11
302.03729678776335
21
24.505555635955375
31
0.0
  0
LINE
 8
Layer0
10
234.34096033200288
20
24.9934556008771
30
0.0
11
231.72777074049174
21
24.980490292793043
31
0.0
  0
LINE
 8
Layer0
10
135.05449476067722
20
24.896386852393164
30
0.0
11
134.75411721792779
21
24.98530789658062
31
0.0
  0
LINE
 8
Layer0
10
102.46
20
23.92568486038535
30
0.0
11
102.3868191118225
21
24.230279965226053
31
0.0
  0
LINE
 8
Layer0
10
101.14096033200288
20
24.9934556008771
30
0.0
11
98.52777074049173
21
24.980490292793043
31
0.0
  0
LINE
 8
Layer0
10
135.6868191118225
20
24.230279965226053
30
0.0
11
135.53729678776332
21
24.505555635955375
31
0.0
  0
LINE
 8
Layer0
10
167.74096033200286
20
24.9934556008771
30
0.0
11
165.1277707404917
21
24.980490292793043
31
0.0
  0
LINE
 8
Layer0
10
164.05999999999997
20
23.661450624796018
30
0.0
11
164.05999999999997
21
0.0
31
0.0
  0
LINE
 8
Layer0
10
168.62162272710995
20
24.73275229052763
30
0.0
11
168.3544947606772
21
24.896386852393164
31
0.0
  0
LINE
 8
Layer0
10
169.05999999999997
20
23.92568486038535
30
0.0
11
168.98681911182248
21
24.230279965226053
31
0.0
  0
LINE
 8
Layer0
10
198.1231756356508
20
24.907309404615663
30
0.0
11
198.42777074049172
21
24.980490292793043
31
0.0
  0
LINE
 8
Layer0
10
97.55706874848384
20
24.274985053470225
30
0.0
11
97.46814770429651
21
23.974607510720915
31
0.0
  0
LINE
 8
Layer0
10
164.0681477042965
20
23.974607510720915
30
0.0
11
164.05999999999997
21
23.661450624796018
31
0.0
  0
LINE
 8
Layer0
10
169.05999999999997
20
0.0
30
0.0
11
169.05999999999997
21
23.92568486038535
31
0.0
  0
LINE
 8
Layer0
10
164.82317563565078
20
24.907309404615663
30
0.0
11
165.1277707404917
21
24.980490292793043
31
0.0
  0
LINE
 8
Layer0
10
102.23729678776333
20
24.505555635955375
30
0.0
11
102.02162272710999
21
24.73275229052763
31
0.0
  0
LINE
 8
Layer0
10
168.3544947606772
20
24.896386852393164
30
0.0
11
168.05411721792777
21
24.98530789658062
31
0.0
  0
LINE
 8
Layer0
10
198.1231756356508
20
24.907309404615663
30
0.0
11
197.84789996492157
21
24.75778708055653
31
0.0
  0
LINE
 8
Layer0
10
102.46
20
0.0
30
0.0
11
102.46
21
23.92568486038535
31
0.0
  0
LINE
 8
Layer0
10
201.35411721792778
20
24.98530789658062
30
0.0
11
201.04096033200287
21
24.9934556008771
31
0.0
  0
LINE
 8
Layer0
10
202.35999999999999
20
23.92568486038535
30
0.0
11
202.28681911182247
21
24.230279965226053
31
0.0
  0
LINE
 8
Layer0
10
197.62070331034963
20
24.54211301990295
30
0.0
11
197.45706874848383
21
24.274985053470225
31
0.0
  0
LINE
 8
Layer0
10
202.28681911182247
20
24.230279965226053
30
0.0
11
202.13729678776332
21
24.505555635955375
31
0.0
  0
LINE
 8
Layer0
10
197.35999999999999
20
23.661450624796018
30
0.0
11
197.35999999999999
21
0.0
31
0.0
  0
LINE
 8
Layer0
10
135.76
20
23.92568486038535
30
0.0
11
135.6868191118225
21
24.230279965226053
31
0.0
  0
LINE
 8
Layer0
10
135.53729678776332
20
24.505555635955375
30
0.0
11
135.32162272710997
21
24.73275229052763
31
0.0
  0
LINE
 8
Layer0
10
97.72070331034962
20
24.54211301990295
30
0.0
11
97.55706874848384
21
24.274985053470225
31
0.0
  0
LINE
 8
Layer0
10
130.76814770429652
20
23.974607510720915
30
0.0
11
130.76
21
23.661450624796018
31
0.0
  0
LINE
 8
Layer0
10
168.98681911182248
20
24.230279965226053
30
0.0
11
168.8372967877633
21
24.505555635955375
31
0.0
  0
LINE
 8
Layer0
10
202.35999999999999
20
0.0
30
0.0
11
202.35999999999999
21
23.92568486038535
31
0.0
  0
LINE
 8
Layer0
10
197.36814770429652
20
23.974607510720915
30
0.0
11
197.35999999999999
21
23.661450624796018
31
0.0
  0
LINE
 8
Layer0
10
131.24789996492157
20
24.75778708055653
30
0.0
11
131.02070331034963
21
24.54211301990295
31
0.0
  0
LINE
 8
Layer0
10
135.32162272710997
20
24.73275229052763
30
0.0
11
135.05449476067722
21
24.896386852393164
31
0.0
  0
LINE
 8
Layer0
10
97.46814770429651
20
23.974607510720915
30
0.0
11
97.46
21
23.661450624796018
31
0.0
  0
LINE
 8
Layer0
10
131.5231756356508
20
24.907309404615663
30
0.0
11
131.24789996492157
21
24.75778708055653
31
0.0
  0
LINE
 8
Layer0
10
98.2231756356508
20
24.907309404615663
30
0.0
11
98.52777074049173
21
24.980490292793043
31
0.0
  0
LINE
 8
Layer0
10
102.3868191118225
20
24.230279965226053
30
0.0
11
102.23729678776333
21
24.505555635955375
31
0.0
  0
LINE
 8
Layer0
10
102.02162272710999
20
24.73275229052763
30
0.0
11
101.75449476067723
21
24.896386852393164
31
0.0
  0
LINE
 8
Layer0
10
131.02070331034963
20
24.54211301990295
30
0.0
11
130.85706874848384
21
24.274985053470225
31
0.0
  0
LINE
 8
Layer0
10
168.8372967877633
20
24.505555635955375
30
0.0
11
168.62162272710995
21
24.73275229052763
31
0.0
  0
LINE
 8
Layer0
10
201.92162272710996
20
24.73275229052763
30
0.0
11
201.6544947606772
21
24.896386852393164
31
0.0
  0
LINE
 8
Layer0
10
201.6544947606772
20
24.896386852393164
30
0.0
11
201.35411721792778
21
24.98530789658062
31
0.0
  0
LINE
 8
Layer0
10
234.6541172179278
20
24.98530789658062
30
0.0
11
234.34096033200288
21
24.9934556008771
31
0.0
  0
LINE
 8
Layer0
10
135.76
20
0.0
30
0.0
11
135.76
21
23.92568486038535
31
0.0
  0
LINE
 8
Layer0
10
164.15706874848382
20
24.274985053470225
30
0.0
11
164.0681477042965
21
23.974607510720915
31
0.0
  0
LINE
 8
Layer0
10
164.32070331034961
20
24.54211301990295
30
0.0
11
164.15706874848382
21
24.274985053470225
31
0.0
  0
LINE
 8
Layer0
10
131.5231756356508
20
24.907309404615663
30
0.0
11
131.82777074049173
21
24.980490292793043
31
0.0
  0
LINE
 8
Layer0
10
197.45706874848383
20
24.274985053470225
30
0.0
11
197.36814770429652
21
23.974607510720915
31
0.0
  0
LINE
 8
Layer0
10
268.8868191118225
20
24.230279965226053
30
0.0
11
268.73729678776334
21
24.505555635955375
31
0.0
  0
LINE
 8
Layer0
10
268.52162272710996
20
24.73275229052763
30
0.0
11
268.25449476067723
21
24.896386852393164
31
0.0
  0
LINE
 8
Layer0
10
197.84789996492157
20
24.75778708055653
30
0.0
11
197.62070331034963
21
24.54211301990295
31
0.0
  0
LINE
 8
Layer0
10
235.4372967877633
20
24.505555635955375
30
0.0
11
235.22162272710997
21
24.73275229052763
31
0.0
  0
LINE
 8
Layer0
10
164.82317563565078
20
24.907309404615663
30
0.0
11
164.54789996492156
21
24.75778708055653
31
0.0
  0
LINE
 8
Layer0
10
97.46
20
23.661450624796018
30
0.0
11
97.46
21
0.0
31
0.0
  0
LINE
 8
Layer0
10
98.2231756356508
20
24.907309404615663
30
0.0
11
97.94789996492158
21
24.75778708055653
31
0.0
  0
LINE
 8
Layer0
10
235.65999999999997
20
0.0
30
0.0
11
235.65999999999997
21
23.92568486038535
31
0.0
  0
LINE
 8
Layer0
10
235.65999999999997
20
23.92568486038535
30
0.0
11
235.58681911182248
21
24.230279965226053
31
0.0
  0
LINE
 8
Layer0
10
130.76
20
23.661450624796018
30
0.0
11
130.76
21
0.0
31
0.0
  0
LINE
 8
Layer0
10
201.04096033200287
20
24.9934556008771
30
0.0
11
198.42777074049172
21
24.980490292793043
31
0.0
  0
LINE
 8
Layer0
10
130.85706874848384
20
24.274985053470225
30
0.0
11
130.76814770429652
21
23.974607510720915
31
0.0
  0
LINE
 8
Layer0
10
202.13729678776332
20
24.505555635955375
30
0.0
11
201.92162272710996
21
24.73275229052763
31
0.0
  0
LINE
 8
Layer0
10
134.44096033200287
20
24.9934556008771
30
0.0
11
131.82777074049173
21
24.980490292793043
31
0.0
  0
LINE
 8
Layer0
10
164.54789996492156
20
24.75778708055653
30
0.0
11
164.32070331034961
21
24.54211301990295
31
0.0
  0
LINE
 8
Layer0
10
97.94789996492158
20
24.75778708055653
30
0.0
11
97.72070331034962
21
24.54211301990295
31
0.0
  0
LINE
 8
Layer0
10
101.75449476067723
20
24.896386852393164
30
0.0
11
101.45411721792779
21
24.98530789658062
31
0.0
  0
LINE
 8
Layer0
10
35.39162272710998
20
24.73275229052763
30
0.0
11
35.12449476067723
21
24.896386852393164
31
0.0
  0
LINE
 8
Layer0
10
168.05411721792777
20
24.98530789658062
30
0.0
11
167.74096033200286
21
24.9934556008771
31
0.0
  0
LINE
 8
Layer0
10
35.12449476067723
20
24.896386852393164
30
0.0
11
34.82411721792779
21
24.98530789658062
31
0.0
  0
LINE
 8
Layer0
10
101.45411721792779
20
24.98530789658062
30
0.0
11
101.14096033200288
21
24.9934556008771
31
0.0
  0
LINE
 8
Layer0
10
31.593175635650802
20
24.907309404615663
30
0.0
11
31.31789996492157
21
24.75778708055653
31
0.0
  0
LINE
 8
Layer0
10
31.593175635650802
20
24.907309404615663
30
0.0
11
31.897770740491733
21
24.980490292793043
31
0.0
  0
LINE
 8
Layer0
10
67.84096033200288
20
24.9934556008771
30
0.0
11
65.22777074049174
21
24.980490292793043
31
0.0
  0
LINE
 8
Layer0
10
69.16
20
0.0
30
0.0
11
69.16
21
23.92568486038535
31
0.0
  0
LINE
 8
Layer0
10
68.93729678776333
20
24.505555635955375
30
0.0
11
68.72162272710999
21
24.73275229052763
31
0.0
  0
LINE
 8
Layer0
10
64.64789996492158
20
24.75778708055653
30
0.0
11
64.42070331034964
21
24.54211301990295
31
0.0
  0
LINE
 8
Layer0
10
64.25706874848385
20
24.274985053470225
30
0.0
11
64.16814770429653
21
23.974607510720915
31
0.0
  0
LINE
 8
Layer0
10
64.92317563565081
20
24.907309404615663
30
0.0
11
64.64789996492158
21
24.75778708055653
31
0.0
  0
LINE
 8
Layer0
10
30.83
20
23.661450624796018
30
0.0
11
30.83
21
0.0
31
0.0
  0
LINE
 8
Layer0
10
30.83814770429652
20
23.974607510720915
30
0.0
11
30.83
21
23.661450624796018
31
0.0
  0
LINE
 8
Layer0
10
35.756819111822495
20
24.230279965226053
30
0.0
11
35.607296787763325
21
24.505555635955375
31
0.0
  0
LINE
 8
Layer0
10
64.42070331034964
20
24.54211301990295
30
0.0
11
64.25706874848385
21
24.274985053470225
31
0.0
  0
LINE
 8
Layer0
10
64.92317563565081
20
24.907309404615663
30
0.0
11
65.22777074049174
21
24.980490292793043
31
0.0
  0
LINE
 8
Layer0
10
64.16
20
23.661450624796018
30
0.0
11
64.16
21
0.0
31
0.0
  0
LINE
 8
Layer0
10
134.75411721792779
20
24.98530789658062
30
0.0
11
134.44096033200287
21
24.9934556008771
31
0.0
  0
LINE
 8
Layer0
10
64.16814770429653
20
23.974607510720915
30
0.0
11
64.16
21
23.661450624796018
31
0.0
  0
LINE
 8
Layer0
10
69.08681911182249
20
24.230279965226053
30
0.0
11
68.93729678776333
21
24.505555635955375
31
0.0
  0
LINE
 8
Layer0
10
31.090703310349628
20
24.54211301990295
30
0.0
11
30.92706874848384
21
24.274985053470225
31
0.0
  0
LINE
 8
Layer0
10
263.96
20
23.661450624796018
30
0.0
11
263.96
21
0.0
31
0.0
  0
LINE
 8
Layer0
10
263.96814770429654
20
23.974607510720915
30
0.0
11
263.96
21
23.661450624796018
31
0.0
  0
LINE
 8
Layer0
10
69.16
20
23.92568486038535
30
0.0
11
69.08681911182249
21
24.230279965226053
31
0.0
  0
LINE
 8
Layer0
10
68.45449476067724
20
24.896386852393164
30
0.0
11
68.15411721792779
21
24.98530789658062
31
0.0
  0
LINE
 8
Layer0
10
68.15411721792779
20
24.98530789658062
30
0.0
11
67.84096033200288
21
24.9934556008771
31
0.0
  0
LINE
 8
Layer0
10
68.72162272710999
20
24.73275229052763
30
0.0
11
68.45449476067724
21
24.896386852393164
31
0.0
  0
LINE
 8
Layer0
10
69.16
20
0.0
30
0.0
11
97.46
21
0.0
31
0.0
  0
LINE
 8
Layer0
10
202.35999999999999
20
0.0
30
0.0
11
230.66
21
0.0
31
0.0
  0
LINE
 8
Layer0
10
235.65999999999997
20
0.0
30
0.0
11
263.96
21
0.0
31
0.0
  0
LINE
 8
Layer0
10
364.34789996492157
20
24.75778708055653
30
0.0
11
364.12070331034965
21
24.54211301990295
31
0.0
  0
LINE
 8
Layer0
10
363.95706874848383
20
24.274985053470225
30
0.0
11
363.8681477042965
21
23.974607510720915
31
0.0
  0
LINE
 8
Layer0
10
364.6231756356508
20
24.907309404615663
30
0.0
11
364.34789996492157
21
24.75778708055653
31
0.0
  0
LINE
 8
Layer0
10
364.12070331034965
20
24.54211301990295
30
0.0
11
363.95706874848383
21
24.274985053470225
31
0.0
  0
LINE
 8
Layer0
10
30.92706874848384
20
24.274985053470225
30
0.0
11
30.83814770429652
21
23.974607510720915
31
0.0
  0
LINE
 8
Layer0
10
135.76
20
0.0
30
0.0
11
164.05999999999997
21
0.0
31
0.0
  0
LINE
 8
Layer0
10
-2.469999999999999
20
-0.008038686579029486
30
0.0
11
-2.469999999999999
21
45.0
31
0.0
  0
LINE
 8
Layer0
10
169.05999999999997
20
0.0
30
0.0
11
197.35999999999999
21
0.0
31
0.0
  0
LINE
 8
Layer0
10
397.53
20
0.0
30
0.0
11
397.53
21
45.0
31
0.0
  0
LINE
 8
Layer0
10
230.75706874848385
20
24.274985053470225
30
0.0
11
230.6681477042965
21
23.974607510720915
31
0.0
  0
LINE
 8
Layer0
10
264.7231756356508
20
24.907309404615663
30
0.0
11
265.02777074049175
21
24.980490292793043
31
0.0
  0
LINE
 8
Layer0
10
264.7231756356508
20
24.907309404615663
30
0.0
11
264.4478999649216
21
24.75778708055653
31
0.0
  0
LINE
 8
Layer0
10
230.9207033103496
20
24.54211301990295
30
0.0
11
230.75706874848385
21
24.274985053470225
31
0.0
  0
LINE
 8
Layer0
10
300.9409603320029
20
24.9934556008771
30
0.0
11
298.32777074049176
21
24.980490292793043
31
0.0
  0
LINE
 8
Layer0
10
302.03729678776335
20
24.505555635955375
30
0.0
11
301.82162272710997
21
24.73275229052763
31
0.0
  0
LINE
 8
Layer0
10
231.4231756356508
20
24.907309404615663
30
0.0
11
231.72777074049174
21
24.980490292793043
31
0.0
  0
LINE
 8
Layer0
10
230.6681477042965
20
23.974607510720915
30
0.0
11
230.66
21
23.661450624796018
31
0.0
  0
LINE
 8
Layer0
10
301.2541172179278
20
24.98530789658062
30
0.0
11
300.9409603320029
21
24.9934556008771
31
0.0
  0
LINE
 8
Layer0
10
302.26
20
0.0
30
0.0
11
302.26
21
23.92568486038535
31
0.0
  0
LINE
 8
Layer0
10
302.26
20
23.92568486038535
30
0.0
11
302.1868191118225
21
24.230279965226053
31
0.0
  0
LINE
 8
Layer0
10
231.4231756356508
20
24.907309404615663
30
0.0
11
231.14789996492155
21
24.75778708055653
31
0.0
  0
LINE
 8
Layer0
10
235.58681911182248
20
24.230279965226053
30
0.0
11
235.4372967877633
21
24.505555635955375
31
0.0
  0
LINE
 8
Layer0
10
231.14789996492155
20
24.75778708055653
30
0.0
11
230.9207033103496
21
24.54211301990295
31
0.0
  0
LINE
 8
Layer0
10
230.66
20
23.661450624796018
30
0.0
11
230.66
21
0.0
31
0.0
  0
LINE
 8
Layer0
10
235.22162272710997
20
24.73275229052763
30
0.0
11
234.95449476067722
21
24.896386852393164
31
0.0
  0
LINE
 8
Layer0
10
234.95449476067722
20
24.896386852393164
30
0.0
11
234.6541172179278
21
24.98530789658062
31
0.0
  0
LINE
 8
Layer0
10
264.05706874848386
20
24.274985053470225
30
0.0
11
263.96814770429654
21
23.974607510720915
31
0.0
  0
LINE
 8
Layer0
10
264.2207033103496
20
24.54211301990295
30
0.0
11
264.05706874848386
21
24.274985053470225
31
0.0
  0
LINE
 8
Layer0
10
364.6231756356508
20
24.907309404615663
30
0.0
11
364.9277707404917
21
24.980490292793043
31
0.0
  0
LINE
 8
Layer0
10
35.83
20
0.0
30
0.0
11
64.16
21
0.0
31
0.0
  0
LINE
 8
Layer0
10
363.86
20
23.661450624796018
30
0.0
11
363.86
21
0.0
31
0.0
  0
LINE
 8
Layer0
10
363.8681477042965
20
23.974607510720915
30
0.0
11
363.86
21
23.661450624796018
31
0.0
  0
LINE
 8
Layer0
10
368.7868191118225
20
24.230279965226053
30
0.0
11
368.6372967877633
21
24.505555635955375
31
0.0
  0
LINE
 8
Layer0
10
368.42162272711
20
24.73275229052763
30
0.0
11
368.15449476067727
21
24.896386852393164
31
0.0
  0
LINE
 8
Layer0
10
368.15449476067727
20
24.896386852393164
30
0.0
11
367.8541172179278
21
24.98530789658062
31
0.0
 0
ENDSEC
 0
EOF
